<mxfile host="app.diagrams.net" modified="2023-03-25T09:02:19.633Z" agent="5.0 (Windows NT 10.0; Win64; x64) AppleWebKit/537.36 (KHTML, like Gecko) Chrome/111.0.0.0 Safari/537.36" etag="QkKp1QuOkOztQmh8M_OR" version="20.0.4" type="github">
  <diagram id="uiixQkvdrueYnghKikUp" name="Page-1">
    <mxGraphModel dx="1550" dy="835" grid="1" gridSize="10" guides="1" tooltips="1" connect="1" arrows="1" fold="1" page="1" pageScale="1" pageWidth="827" pageHeight="1169" math="0" shadow="0">
      <root>
        <mxCell id="0" />
        <mxCell id="1" parent="0" />
        <mxCell id="Z0Vu20o25RXE1RvMCZpv-2" value="Driver" style="rounded=0;whiteSpace=wrap;html=1;fontSize=20;fontFamily=Comic Sans MS;fillColor=#FF3333;align=left;verticalAlign=top;" parent="1" vertex="1">
          <mxGeometry x="30" y="260" width="330" height="370" as="geometry" />
        </mxCell>
        <mxCell id="84MRgIzg6c_T2g9TI0bH-2" value="RDD&lt;br&gt;" style="rounded=0;whiteSpace=wrap;html=1;fontSize=20;fontFamily=Comic Sans MS;fillColor=#7F00FF;align=left;verticalAlign=top;" parent="1" vertex="1">
          <mxGeometry x="55" y="295" width="245" height="275" as="geometry" />
        </mxCell>
        <mxCell id="84MRgIzg6c_T2g9TI0bH-7" value="" style="group" parent="1" vertex="1" connectable="0">
          <mxGeometry x="70" y="330" width="160" height="130" as="geometry" />
        </mxCell>
        <mxCell id="84MRgIzg6c_T2g9TI0bH-6" value="输入" style="rounded=0;whiteSpace=wrap;html=1;fontSize=20;fontFamily=Comic Sans MS;fillColor=#FFFFFF;align=left;verticalAlign=top;" parent="84MRgIzg6c_T2g9TI0bH-7" vertex="1">
          <mxGeometry width="160" height="130" as="geometry" />
        </mxCell>
        <mxCell id="84MRgIzg6c_T2g9TI0bH-4" value="Hello,scala" style="rounded=0;whiteSpace=wrap;html=1;fontSize=20;fontFamily=Comic Sans MS;fillColor=#FFFFFF;align=left;verticalAlign=top;" parent="84MRgIzg6c_T2g9TI0bH-7" vertex="1">
          <mxGeometry x="25" y="85" width="110" height="45" as="geometry" />
        </mxCell>
        <mxCell id="84MRgIzg6c_T2g9TI0bH-5" value="Hello,spark" style="rounded=0;whiteSpace=wrap;html=1;fontSize=20;fontFamily=Comic Sans MS;fillColor=#FFFFFF;align=left;verticalAlign=top;" parent="84MRgIzg6c_T2g9TI0bH-7" vertex="1">
          <mxGeometry x="25" y="40" width="110" height="45" as="geometry" />
        </mxCell>
        <mxCell id="84MRgIzg6c_T2g9TI0bH-8" value="计算逻辑&lt;br&gt;WordCount" style="rounded=0;whiteSpace=wrap;html=1;fontSize=20;fontFamily=Comic Sans MS;fillColor=#FFCCFF;align=left;verticalAlign=top;" parent="1" vertex="1">
          <mxGeometry x="70" y="480" width="160" height="63" as="geometry" />
        </mxCell>
        <mxCell id="84MRgIzg6c_T2g9TI0bH-15" value="" style="group" parent="1" vertex="1" connectable="0">
          <mxGeometry x="650" y="115" width="270" height="180" as="geometry" />
        </mxCell>
        <mxCell id="84MRgIzg6c_T2g9TI0bH-11" value="Task" style="rounded=0;whiteSpace=wrap;html=1;fontSize=20;fontFamily=Comic Sans MS;fillColor=#33FFFF;align=left;verticalAlign=top;" parent="84MRgIzg6c_T2g9TI0bH-15" vertex="1">
          <mxGeometry width="270" height="180" as="geometry" />
        </mxCell>
        <mxCell id="84MRgIzg6c_T2g9TI0bH-12" value="Hello,spark" style="rounded=0;whiteSpace=wrap;html=1;fontSize=20;fontFamily=Comic Sans MS;fillColor=#FFFFFF;align=left;verticalAlign=top;" parent="84MRgIzg6c_T2g9TI0bH-15" vertex="1">
          <mxGeometry x="10" y="40" width="110" height="45" as="geometry" />
        </mxCell>
        <mxCell id="84MRgIzg6c_T2g9TI0bH-13" value="计算逻辑&lt;br&gt;WordCount" style="rounded=0;whiteSpace=wrap;html=1;fontSize=20;fontFamily=Comic Sans MS;fillColor=#FFCCFF;align=left;verticalAlign=top;" parent="84MRgIzg6c_T2g9TI0bH-15" vertex="1">
          <mxGeometry x="10" y="85" width="160" height="63" as="geometry" />
        </mxCell>
        <mxCell id="84MRgIzg6c_T2g9TI0bH-16" value="" style="group" parent="1" vertex="1" connectable="0">
          <mxGeometry x="650" y="537.5" width="270" height="180" as="geometry" />
        </mxCell>
        <mxCell id="84MRgIzg6c_T2g9TI0bH-17" value="Task" style="rounded=0;whiteSpace=wrap;html=1;fontSize=20;fontFamily=Comic Sans MS;fillColor=#33FFFF;align=left;verticalAlign=top;" parent="84MRgIzg6c_T2g9TI0bH-16" vertex="1">
          <mxGeometry width="270" height="180" as="geometry" />
        </mxCell>
        <mxCell id="84MRgIzg6c_T2g9TI0bH-18" value="Hello,spark" style="rounded=0;whiteSpace=wrap;html=1;fontSize=20;fontFamily=Comic Sans MS;fillColor=#FFFFFF;align=left;verticalAlign=top;" parent="84MRgIzg6c_T2g9TI0bH-16" vertex="1">
          <mxGeometry x="10" y="40" width="110" height="45" as="geometry" />
        </mxCell>
        <mxCell id="84MRgIzg6c_T2g9TI0bH-19" value="计算逻辑&lt;br&gt;WordCount" style="rounded=0;whiteSpace=wrap;html=1;fontSize=20;fontFamily=Comic Sans MS;fillColor=#FFCCFF;align=left;verticalAlign=top;" parent="84MRgIzg6c_T2g9TI0bH-16" vertex="1">
          <mxGeometry x="10" y="85" width="160" height="63" as="geometry" />
        </mxCell>
        <mxCell id="84MRgIzg6c_T2g9TI0bH-20" value="" style="endArrow=classic;startArrow=none;html=1;rounded=0;fontFamily=Comic Sans MS;fontColor=#63FF88;strokeWidth=10;entryX=-0.009;entryY=0.58;entryDx=0;entryDy=0;entryPerimeter=0;exitX=1;exitY=0.25;exitDx=0;exitDy=0;startFill=0;" parent="1" source="84MRgIzg6c_T2g9TI0bH-2" target="84MRgIzg6c_T2g9TI0bH-11" edge="1">
          <mxGeometry width="50" height="50" relative="1" as="geometry">
            <mxPoint x="480" y="410" as="sourcePoint" />
            <mxPoint x="530" y="360" as="targetPoint" />
          </mxGeometry>
        </mxCell>
        <mxCell id="84MRgIzg6c_T2g9TI0bH-21" value="" style="endArrow=classic;startArrow=none;html=1;rounded=0;fontFamily=Comic Sans MS;fontColor=#63FF88;strokeWidth=10;entryX=0.003;entryY=0.439;entryDx=0;entryDy=0;exitX=1;exitY=0.75;exitDx=0;exitDy=0;startFill=0;entryPerimeter=0;" parent="1" source="84MRgIzg6c_T2g9TI0bH-2" target="84MRgIzg6c_T2g9TI0bH-17" edge="1">
          <mxGeometry width="50" height="50" relative="1" as="geometry">
            <mxPoint x="350" y="656.3499999999998" as="sourcePoint" />
            <mxPoint x="697.5699999999997" y="511.9999999999999" as="targetPoint" />
          </mxGeometry>
        </mxCell>
        <mxCell id="84MRgIzg6c_T2g9TI0bH-22" value="" style="endArrow=classic;startArrow=none;html=1;rounded=0;fontFamily=Comic Sans MS;fontColor=#63FF88;strokeWidth=10;startFill=0;" parent="1" source="84MRgIzg6c_T2g9TI0bH-11" edge="1">
          <mxGeometry width="50" height="50" relative="1" as="geometry">
            <mxPoint x="1100" y="344.35" as="sourcePoint" />
            <mxPoint x="1140" y="200" as="targetPoint" />
          </mxGeometry>
        </mxCell>
        <mxCell id="84MRgIzg6c_T2g9TI0bH-23" value="" style="endArrow=classic;startArrow=none;html=1;rounded=0;fontFamily=Comic Sans MS;fontColor=#63FF88;strokeWidth=10;exitX=1;exitY=0.5;exitDx=0;exitDy=0;startFill=0;entryX=0;entryY=0.5;entryDx=0;entryDy=0;" parent="1" source="84MRgIzg6c_T2g9TI0bH-17" target="84MRgIzg6c_T2g9TI0bH-29" edge="1">
          <mxGeometry width="50" height="50" relative="1" as="geometry">
            <mxPoint x="1150" y="570" as="sourcePoint" />
            <mxPoint x="1120" y="640" as="targetPoint" />
          </mxGeometry>
        </mxCell>
        <mxCell id="84MRgIzg6c_T2g9TI0bH-28" value="Executor" style="rounded=0;whiteSpace=wrap;html=1;fontSize=20;fontFamily=Comic Sans MS;fillColor=#00CC00;align=left;verticalAlign=top;" parent="1" vertex="1">
          <mxGeometry x="1140" y="67.5" width="245" height="275" as="geometry" />
        </mxCell>
        <mxCell id="84MRgIzg6c_T2g9TI0bH-29" value="Executor" style="rounded=0;whiteSpace=wrap;html=1;fontSize=20;fontFamily=Comic Sans MS;fillColor=#00CC00;align=left;verticalAlign=top;" parent="1" vertex="1">
          <mxGeometry x="1140" y="490" width="245" height="275" as="geometry" />
        </mxCell>
      </root>
    </mxGraphModel>
  </diagram>
</mxfile>
